<svg width="58" height="54" viewBox="0 0 58 54" fill="none" xmlns="http://www.w3.org/2000/svg">
<path d="M2.08337 43.6631C4.81593 45.1738 24.5962 56.5762 38.6616 47.7881C52.7268 39.0001 51.9509 23.8597 51.9509 16.9218C53.2251 14.2525 55.9167 12.8955 55.9167 5.67038C53.2728 8.11271 50.6449 8.94373 48.033 8.16343C45.4741 4.26189 41.9534 2.53625 37.4709 2.98656C30.7472 3.66203 28.2873 10.2585 29.0112 18.7928C18.6441 24.0355 10.5147 14.9923 6.32513 8.16343C4.92531 13.5415 3.57555 19.9983 6.32513 27.1409C8.15819 31.9026 12.5646 35.9284 19.5444 39.2182C12.4708 43.0519 6.65045 44.5335 2.08337 43.6631Z" fill="#2F88FF" stroke="black" stroke-width="4" stroke-linejoin="round"/>
</svg>
