<svg width="1095" height="708" viewBox="0 0 1095 708" fill="none" xmlns="http://www.w3.org/2000/svg">
<path d="M339 94.5C352 93.5 408.5 142.5 406 43.5C424 30.5 437 58 463 73C489 70 517.5 1.99998 533 3.49998C548.5 4.99998 585 88 585 88L660 38L699 146.5L774.5 123L794 223L854 215L855 278.5L891 288.5L926 325C926 325 960.5 389 972 438.5C981.5 468 1013 617 1013 617L920 681.5C920 681.5 844 705.5 798.5 707.5C754.5 705.43 645 692 645 692L324 681.5C324 681.5 163 655 116.5 635C112.5 629.5 132.5 522 132.5 522L148.5 401L208 372.5L244 366L134.5 305.5L30.5 278.5L4 211L88 235.5V164L126 175.5L152 206.5L161 247L156.5 267.5L166.5 278.5L208 293.5L226 206.5L245 191.5L280.5 200L279.5 153L286 142.5L305 148H324C324 148 336 96 339 94.5Z" fill="white"/>
<g clip-path="url(#clip0_42_32)">
<path d="M646.69 56.47C646.69 56.47 651.59 139.57 665.21 156.74C678.83 173.91 689.31 146.54 687.21 142.93C685.11 139.32 676.73 41.93 676.73 41.93C676.73 41.93 645.24 37.7 646.69 56.47ZM753.21 131.67C753.21 131.67 743.8 194.88 759.52 195.4C775.24 195.92 803.45 156.62 791.24 142.93C779.03 129.24 790.05 110.3 753.21 131.67ZM810.19 225.94C813.19 225.29 827.63 221.39 838.11 225.94C848.59 230.49 747.16 286.08 739.61 304.89C732.06 323.7 714.83 345.59 718.61 342.89C722.39 340.19 738.7 320 750.45 316.89C762.2 313.78 783.18 309.24 791.27 304.96C799.36 300.68 797.2 287.33 816.62 281.96C836.04 276.59 832.9 270.96 852.81 254.89C872.72 238.82 876.34 233.65 866.49 217.89C856.64 202.13 810.19 225.94 810.19 225.94ZM978.57 455.05C958.65 469.28 952.65 488.98 939.79 498.1C903.1 524.1 966.88 494.38 936.66 561.94C924.25 589.67 913.73 622.82 910.5 641.54C904.67 675.26 901.27 678.54 923.05 672.71C937.76 668.77 970.12 656.08 987 632.5C1010.28 600 995.73 572.04 992.28 526.73C986.87 455.05 978.57 455.05 978.57 455.05Z" fill="#E56034"/>
<path d="M823.91 697.49C846.56 691.94 869.15 686.49 891.71 680.87C902.2 678.28 912.8 675.95 923.09 672.71C947.09 665.17 965.96 649.84 983.49 632.53C990.73 625.39 990.84 616.95 989.33 605.28L948 646.28L945.29 643.92C948.54 625.79 953.59 608.82 967.29 594.79C975.49 586.43 987.61 579.34 986.71 565.23C986.13 556.06 983.33 547.04 981.53 537.95L978.23 537.56L955.23 577.84L951.86 576.51C959.12 549.96 966.44 523.43 973.61 496.85C976.23 487.12 979.91 477.38 980.61 467.48C981.34 456.48 977.41 455.89 966.61 456.55C960.46 456.92 952.91 452.82 947.82 448.55C936.54 439.08 923.19 437.78 909.72 436.12C908.72 435.99 907.51 437.17 905.8 440.52L937.92 449.41C937.68 450.7 937.43 452 937.19 453.29C930.35 452.96 923.47 452.9 916.67 452.2C908.84 451.41 905.67 453.41 904.6 462.38C902.6 479.05 898.08 495.38 894.6 511.92C894.18 513.92 893.85 516.43 892.51 517.55C887.93 521.36 882.92 524.66 878.07 528.16C875.37 523.9 872.79 519.54 869.93 515.39C863.03 505.39 855.93 495.46 849.02 485.46C845.02 479.72 837.3 475.8 840.53 466.37C840.99 465.04 835.99 461.83 834.74 458.62C832.09 454.89 829.31 451.24 826.84 447.4C824.11 443.18 822.16 438.35 818.92 434.61C816.92 432.3 813.13 431.54 810.14 430.09C811.03 432.89 811.52 435.9 812.9 438.44C815.2 442.68 818.05 446.63 822.18 453.04C815.18 452.63 811.25 451.87 807.45 452.31C803.29 452.79 799.27 454.38 795.19 455.49C798.04 458.09 800.52 462.22 803.82 463.04C828.97 469.32 842.24 488.96 855.66 509.53C847.8 507.23 839.88 505.08 832.07 502.59C818.47 498.26 804.49 494.7 791.5 488.95C780.33 484.01 775.35 489.38 770.27 497.34C759.71 513.9 749.33 530.58 738.35 546.85C730.16 559 725.48 559.68 711.57 555.6C698.792 552.01 687.02 545.507 677.18 536.6C667.12 527.51 656.02 519.6 645.18 511.33C642 508.9 638.24 507.24 635.88 503.33C654.97 496.12 672.26 490.81 690.95 490.62C686.04 498.72 688.95 503.41 692.8 509.94C697.8 518.33 699.36 528.81 702.27 538.43C702.941 541.094 703.476 543.791 703.87 546.51L706.74 546.79C707.74 544.64 709.55 542.47 709.5 540.34C709.27 531.09 705.09 520.07 708.76 513.05C713.43 504.13 705.09 497.44 709.12 489.56C710.65 486.56 708.54 480.91 706.53 477.34C705.88 476.2 700.16 477.57 696.88 478.34C672.8 483.85 648.75 489.5 623.94 495.28C628.72 487.03 633.05 479.57 637.37 472.1L633.64 469.5C630.93 472.5 627.57 475.05 625.64 478.45C611.42 503.28 588.57 517.36 563.4 528.28C555.4 531.76 546.51 533.38 537.93 535.47C525.27 538.57 530.38 549.75 527.74 557.36C525.45 563.95 529.98 566.36 535.05 568.47C551.28 575.26 567.45 582.19 583.65 589.06L582.65 591.75C576.65 589.54 570.65 587.45 564.72 585.1C553.72 580.72 542.72 576.28 531.72 571.68C525.72 569.14 521.8 570.98 517.72 575.95C496.5 601.95 469.06 613.05 436.3 604.95C424.66 602.08 414.12 593.73 403.8 586.81C397.08 582.31 401.19 576.91 405.91 573.68C415.15 567.37 424.91 561.83 434.37 555.84C439.11 552.84 443.66 549.54 449.37 545.64C446.07 543.14 444.46 541.49 442.52 540.52C429.19 533.8 415.78 527.26 402.43 520.6C396.43 517.6 391.16 514.98 389.62 506.6C388.95 502.92 380.45 499.6 374.96 498.03C340.08 487.87 304.55 479.67 270.21 468.03C241.71 458.34 214.55 444.76 186.79 432.9C187.16 431.9 187.53 430.8 187.91 429.75C195.7 432.02 204.38 432.8 211.14 436.82C247.95 458.67 288.96 468.58 329.47 480.13C348.41 485.52 367.15 491.65 385.84 497.89C391.38 499.74 394.64 498.69 399.34 494.97C407.23 488.74 416.67 484.49 425.4 479.31C428.63 477.4 431.71 475.22 435.28 472.9C433.37 471.08 432.56 469.73 431.94 469.81C410.33 472.56 390.48 462.81 372.89 454.72C338.58 438.85 303.62 432.15 266.64 430.01C249.46 429.01 232.41 424.84 215.45 421.4C212.73 420.85 209.7 416.98 208.66 414C206.089 406.668 204.162 399.126 202.9 391.46C201.9 385.46 199.64 382.39 193.6 384.77C181.93 389.35 169.66 393.12 159.16 399.67C153.75 403.03 149.26 411.33 148.39 417.93C143.64 453.93 140.47 490.19 136.03 526.26C134.64 537.6 130.71 548.6 128.45 559.86C126.486 569.014 125.1 578.282 124.3 587.61C123.46 599.42 123.73 611.3 123.46 623.15C123.31 630.28 126.15 633.95 133.65 635.76C140.97 637.53 147.65 641.84 153.89 646.84C143.26 643.84 132.67 640.74 121.97 638.01C114.66 636.15 112.34 632.14 113.39 624.59C114.62 615.69 115.94 606.4 114.69 597.59C112.34 581.11 118.79 567.41 124.34 552.76C128.56 541.65 130 529.16 130.82 517.16C132.43 493.62 132.44 469.97 133.75 446.4C134.26 437.29 136.09 428.2 138.04 419.26C140.91 406.13 146.55 394.91 160.49 389.99C173.57 385.37 186.49 380.38 200.31 375.26C200.67 370.587 201.09 364.917 201.57 358.25L226.68 364.78L227.09 363.2C211.27 357.28 194.77 352.67 179.8 345.07C163.65 336.86 149.03 325.68 133.51 316.2C130.171 314.203 126.329 313.207 122.44 313.33C104.56 314.33 87.07 317.57 69.01 311.33C38.54 300.78 17.27 282.33 8.85 250.52C6 239.74 2.45 229.09 0.480002 218.15C-1.24 208.57 1.87 205.48 11.11 208.31C31.52 214.57 51.56 222.06 71.75 229.06C74.24 229.92 76.75 230.81 80.33 232.06C79.51 219.68 78.24 208.29 78.14 196.89C78.0038 187.054 78.7434 177.225 80.35 167.52C80.82 164.76 86.21 160.6 88.99 160.86C108.99 162.71 125.57 171.01 139.83 185.86C154.63 201.23 161.67 219.12 163.23 239.63C163.66 245.22 162.23 251.06 161.03 256.63C158.94 266.26 161.26 273.37 171.22 276.63C182.16 280.17 193.16 283.51 206.33 287.63C209.09 271.92 211.5 257.41 214.23 242.96C216.29 232.02 217.65 220.76 221.3 210.33C227.99 191.2 244.3 185.4 263.48 193.97C273.95 198.64 278.29 196.2 278.23 184.46C278.18 175.32 276.67 166.19 275.83 157.05C274.69 144.74 279.14 141.05 291.49 143.24C298.75 144.55 305.1 148.83 313.74 143.79C326.58 136.31 326.96 125.42 326.74 113.36C326.68 109.64 326.34 105.85 326.83 102.19C327.93 94.02 332.69 89.52 340.98 92.05C350.325 94.9782 359.473 98.4986 368.37 102.59C380.98 108.27 391.11 102.02 391.92 87.97C392.429 79.1584 393.4 70.3797 394.83 61.67C398.57 39.05 415.51 32.82 433.11 47.44C437.8 51.33 442.9 55.16 446.35 60.05C454.11 71.05 464.27 70.48 474.93 66.89C477.93 65.89 480.67 62.43 482.43 59.44C490.52 45.69 498.08 31.62 506.12 17.84C511.57 8.58002 517.57 -0.849984 530.06 0.0600157C542.35 0.950016 550.49 8.42001 555.45 19.47C561.14 32.15 566.78 44.86 572.45 57.53C574.26 61.53 575.87 65.74 578.23 69.43C584.62 79.43 590.23 80.43 600.23 73.68C615.92 63.02 632.15 53.03 647.09 41.41C665.09 27.41 692.25 43.07 694.58 65.41C696.72 85.97 697.58 106.67 698.58 127.32C699.12 138.51 702.9 141.55 713.46 137.48C727.38 132.13 740.97 125.83 755.1 121.17C762.01 118.89 769.86 118.55 777.23 118.82C789.11 119.26 799.23 128.23 798.84 140.05C798.34 154.44 795.5 168.84 792.66 183.05C788.87 202 807.29 219.49 826.19 214.71C835.391 212.291 844.782 210.665 854.26 209.85C879.67 207.92 885.26 225.41 876.78 246.28C872.72 256.28 866.27 265.39 859.92 276.64C887.29 277.94 903.92 294.64 919.18 311.56C930.09 323.66 938.91 338.35 945.74 353.23C954.74 372.85 961.55 393.57 968.01 414.23C972.5 428.55 971.81 443.04 981.38 457.52C992.82 474.83 995.73 497.99 1001.38 518.88C1007.46 541.45 1013.44 564.04 1013.6 587.88C1013.66 597.69 1017.5 606.98 1015.6 617.64C1013.99 626.45 1011.15 633.06 1004.78 638.47C974.97 663.72 941.03 680.25 902.57 687.6C886.24 690.73 870.17 695.22 853.98 699.06C843.71 701.48 833.45 703.98 823.91 697.49V697.49ZM806.05 307.83C790.37 302.09 775.58 305.38 762.16 313.83C744.69 324.78 727.46 336.22 710.94 348.54C687.46 366.05 686.64 360.93 699.43 391.9C699.82 392.84 699.89 394.1 700.56 394.71C703.07 396.97 705.77 399.02 708.39 401.15C710.29 398.7 712.39 396.35 714.06 393.77C716.18 390.58 718.06 387.19 719.99 383.85L735.69 403.09L725.08 399.22L722.17 401.12L729.05 415.51C714.42 415.33 726.42 423.07 726.28 427.08C716.28 431.02 722.81 436.44 725.09 441.48C711.19 446.48 725.86 450.61 724.24 454.77C720.89 458.15 717.33 461.93 717.18 465.84C716.68 479.06 717.18 492.33 717.77 505.56C717.93 509.29 719.7 512.95 720.77 516.65C725.01 514.95 729.33 513.41 733.45 511.47C734.9 510.79 735.94 509.19 737.06 507.91C773.31 466.28 803.47 420.84 818.77 367.34C824.77 346.34 828.88 323.41 805.77 307.63C807.65 308.34 809.77 308.72 811.37 309.8C828.81 321.53 836 343.6 829.66 365.57C826.2 377.57 828.31 387.11 837.54 389.99C846.77 392.87 850.17 399.43 853.16 406.9C861.73 428.29 869.91 449.83 878.51 471.21C880.23 475.49 883.13 479.3 885.51 483.33L888.73 482.33C889.53 478.56 890.99 474.8 891.03 471.02C891.31 443.59 891.55 416.16 891.21 388.73C891.12 382.07 890.47 374.47 887.21 368.96C874.62 347.39 861.21 326.28 847.33 305.51C844.82 301.76 838.99 299.22 834.26 298.25C829.53 297.28 824.43 298.99 819.5 299.61C816.05 300.04 812.62 300.61 809.18 301.1L803.56 301.93L806.05 307.83ZM776.74 253.32L774.64 254.82C773.24 251.13 770.64 247.42 770.71 243.75C770.83 236.05 769.81 230.75 760.46 229.88C757.3 229.59 754.46 225.71 749.57 222.02L772.26 224.12C766.62 212.78 750.89 217.75 745.97 204.27L758.64 205.27L759.83 202.7L750.95 194.9L755.61 185.03L771.33 183.31L762.22 175.54C768.07 164.54 774.22 154.32 778.99 143.54C784.32 131.54 779.43 124.71 766.93 127.63C754.93 130.44 743.26 135.34 731.93 140.46C726.63 142.87 722.53 147.94 716.34 153.08L707.86 149.14C707.86 152.48 707.8 154.73 707.86 156.98C707.92 159.23 708.13 161.46 708.27 163.71L706.08 164.2L697.26 152.01L687.39 159.36C673.85 152.6 680.7 135.87 674.53 124.36C672.4 120.36 674.75 114.04 675.12 107.44C668.79 103.91 670.81 98.17 674.49 94.35C672.39 88.1 670.34 83.66 669.49 79.01C668.18 72.01 668.1 64.77 666.74 57.78C665.33 50.52 661.29 46.49 653.85 51.56C640.57 60.61 627.44 69.98 614.57 78.97L621.39 93.25C616.57 92.17 614.31 92.05 612.39 91.14C610.18 90.09 608.29 88.35 605.88 86.63L601.88 95.85L558.41 82.15L562.1 78.9C561.14 73.8867 560.173 68.8867 559.2 63.9C557.91 61.42 559.68 58.35 559.2 55.73C556.08 39.63 551.28 24.04 540.77 11.04C534.57 3.35002 528.02 4.25002 523.31 13.19C518.41 22.47 514.31 32.19 509.24 41.37C505.65 47.91 503.09 53.86 511.93 60.19L492.13 61.96C492.23 62.9 492.33 63.83 492.44 64.77C507.26 66.31 522.09 67.77 536.9 69.43C543.98 70.24 550.84 71.73 553.75 81.26C546.39 80.41 540.05 79.58 533.75 78.95C500.3 75.63 467.03 76.1 435.46 88.95C417.27 96.35 399.73 105.58 382.53 115.13C350.87 132.7 321.3 153.22 299.77 183.13C292.07 193.83 286.45 206.02 278.9 216.84C263.45 238.96 255.81 263.39 254.55 290.15C254.29 295.66 254.74 299.23 260.45 302.44C277.86 312.21 285.66 339.14 275.17 356.02C269 365.94 273.59 371.02 280.02 376.39C288.35 383.39 297.07 389.9 305.59 396.65C338.32 422.57 373.48 444.08 413.52 456.92C433.34 463.28 454.17 464.39 474.17 468.66C499.1 474 521.85 471.48 545.17 464.3C555.87 461 562.5 447.07 558.25 436.5C555.7 430.15 558.48 426.09 563.67 422.89C582.94 411.02 604.08 406.21 626.17 409.89C633.22 411.07 640.17 417.41 645.45 423.03C649.45 427.3 650.65 434.17 653.1 439.9C669.4 431.79 673.02 423.82 670.25 407.8C666.9 388.48 674.69 367 692.04 356.56C697.8 353.09 703.65 349.07 707.97 344.03C730.66 317.54 763.78 309.47 793.44 295.52C798.92 292.94 800.34 292.19 798.57 286.74C797.96 284.86 799 281.14 800.51 280.2C802.51 278.96 805.68 279.34 808.3 279.58C810.53 279.79 812.69 280.79 816.66 281.97L812.85 271.15C826.85 256.22 840.45 241.98 860.85 237.02C863.4 236.4 866.63 231.51 866.5 228.74C866.34 225.37 863.69 220.74 860.78 219.23C857.24 217.37 852.13 217.23 848 217.97C833.65 220.61 819.43 224.03 805.14 227.03C797.61 228.62 792.57 231.65 794.72 240.77C795.26 243.08 793.82 245.86 793.3 248.41L790.19 248.15C790 245.39 790.26 242.5 789.5 239.91C788.68 237.12 786.9 234.62 785.5 232C782.96 234.18 779.06 235.92 778.17 238.64C776.68 243.25 777.11 248.4 776.74 253.32V253.32ZM69.37 275.32C70.07 274.13 70.77 272.93 71.48 271.74C77.57 275.45 84.57 278.25 89.7 283.04C98.8 291.44 108.63 294.49 120.57 291.63C125.149 290.387 129.837 289.59 134.57 289.25C136.64 289.16 140.76 291.74 140.62 292.42C138.75 301.42 146.05 304.16 151.38 306.23C176.65 316.06 202.19 325.23 227.78 334.16C231.78 335.55 236.46 334.76 242.6 335.06L246.37 342.92L256.02 330.63C256.24 335.39 256.36 338.12 256.49 340.85L260.08 341.57C261.84 334.11 266.91 325.19 264.43 319.57C261.86 313.74 252.04 311.08 245.32 307.15C244.53 306.68 243.32 306.99 242.32 306.83C227.21 304.51 211.8 303.33 197.07 299.54C181.38 295.49 166.19 289.3 151.07 283.4C143.89 280.6 142.27 275.49 146.71 268.1C156.88 251.19 156.71 233.28 150.26 215.02C142.57 193.25 116.45 168.36 92.04 167.38C95.74 176.53 99.93 185.43 102.97 194.72C107.77 209.43 110.7 224.49 104.77 239.67C101.06 249.18 96.5 250.08 87.49 245.87C67.21 236.383 46.73 227.337 26.05 218.73C21.15 216.73 15.31 216.91 7.53 215.73C17.53 240.94 26.75 263.07 49.05 276.78L38.57 259.61L40.74 257.56C55.57 267.25 64.15 286.02 84.15 288.39L69.37 275.32ZM402.78 499.72C403.18 501.04 403.59 502.36 403.99 503.72C412.51 505.51 421.09 507.04 429.53 509.13C444.65 512.87 459.91 516.26 474.68 521.13C485.51 524.69 486.49 530.38 477.48 537.87C463.48 549.53 448.48 560.01 433.94 571.1C432.22 572.41 430.94 574.36 429.51 576.01C431.51 577.52 433.7 580.44 435.62 580.29C442.689 579.897 449.694 578.733 456.51 576.82C463.01 574.82 469.01 571.26 475.23 568.39C475.55 568.91 475.86 569.39 476.18 569.94L463.29 580.94C488.18 581.16 496.81 558.94 514.09 547.94L503.74 566.86C521.28 553.71 523.57 536.08 518.31 515.57C525.12 525.01 533.25 521.57 540.91 519.57C565.91 513.06 586.51 497.89 607.59 484.02C615.59 478.73 620.67 470.14 617.34 459.82L625.57 458.23C624.9 455.42 624.76 452.33 623.43 449.88C621.64 446.56 618.94 443.73 616.63 440.69L618.31 439.01L628.31 446.07C628.61 442.46 627.73 439.28 625.64 437.73C613.54 428.73 599.96 423.99 584.7 425.26C575.96 425.99 570.99 430.14 569.01 439.5C563.76 464.37 551.08 484.6 528.73 497.89C519.58 503.33 512.4 503.89 503.48 494.89C476.31 467.37 445.48 471.89 419.29 486.01C413.08 489.25 408.23 495.08 402.78 499.74V499.72ZM915.08 369.08C928.79 388.44 942 407.25 955.47 425.88C956.76 427.67 959.69 428.28 961.85 429.44C962.74 427.09 964.59 424.63 964.34 422.44C963.846 417.085 962.667 411.815 960.83 406.76C954.65 391.07 949.33 374.81 941.13 360.2C930.13 340.55 917.89 321.25 903.77 303.76C897.31 295.76 885.63 290.34 875.29 287.55C862.92 284.2 849.47 284.55 836.46 284.09C833.46 283.98 830.37 286.95 827.32 288.51C830 289.96 832.59 292.51 835.32 292.69C851.07 293.94 863.26 301.45 871.41 314.38C878.93 326.32 885.24 339.08 891.41 351.81C896.74 362.76 906.99 371.07 915.08 369.1V369.08ZM220.57 282.41L222.36 283.11C228.3 276.04 235.45 269.65 239.94 261.75C249.76 244.48 258.36 226.5 267.06 208.62C268.06 206.62 267.52 202.27 265.99 200.83C254.88 190.4 232.67 195.77 230.11 210.29C225.9 234.15 223.65 258.35 220.57 282.41V282.41ZM239.26 401.41C236.5 404.41 234.31 406.92 232.05 409.33C227.81 413.86 229.37 416.98 234.83 417.67C251.97 419.81 269.16 421.51 286.35 423.26C287.41 423.37 288.59 422.37 289.65 421.92C289.39 421.01 289.4 420.53 289.2 420.4C275.48 411.74 264.2 401.19 259.73 384.72C259.38 383.45 250.99 382.35 250.22 383.58C246.92 388.91 242.48 388.9 237.22 389.25C233.97 389.46 230.86 391.84 224.9 394.48L239.26 401.41ZM441.26 64.41C434.36 57.25 429.01 50.1 422.17 44.94C414.07 38.83 407.71 42.46 407.46 52.61C407.28 60.33 407.9 68.07 408.36 75.78C408.45 77.35 408.95 79.4 410.03 80.31C416.31 85.56 439.03 82.64 448.75 74.23L433.37 72.97L432.04 70.55L441.26 64.41ZM369.7 110.69C360.91 105.83 354.82 102.31 348.58 99.05C343.28 96.28 337.73 97.98 337.67 103.47C337.58 110.62 340.44 117.85 342.54 124.9C342.71 125.48 347.26 125.73 348.92 124.72C355.43 120.81 361.57 116.31 369.73 110.71L369.7 110.69ZM701.96 419.8L694.42 406.54C700.69 399.69 696.42 383.91 685.96 375.34C676.74 389.86 683.02 415.73 701.96 419.8ZM287.01 142.93C284.01 147.54 280.75 150.43 281.27 152.21C283.1 158.53 286.27 164.46 288.86 170.54L305.05 158.47L287.01 142.93ZM595.79 418.13C606.79 423.61 615.61 428.23 624.65 432.39C627.73 433.81 631.32 434.12 634.65 434.94C633.57 431.05 633.74 425.63 631.18 423.55C621.19 415.38 609.44 414.81 595.79 418.13Z" fill="black"/>
<path d="M188.28 655.31C190.96 654.01 193.56 651.55 195.67 651.91C211.96 654.69 228.8 656.15 244.24 661.54C283.16 675.12 322.53 682.54 364.01 682C424.87 681.24 485.79 681.71 546.61 683.93C596.17 685.74 645.61 690.78 695.09 694.59C711.88 695.88 728.63 697.79 748.94 699.77C756.5 701 763.643 697.902 759 704.5C708.71 701.09 657.57 698.16 607.31 695.25C587.66 694.12 567.89 695.16 548.17 694.84C482.39 693.78 416.58 693.13 350.82 691.05C327.82 690.33 304.82 686.77 282.1 682.79C271.1 680.86 261.04 674.14 250.15 671.03C230.37 665.39 210.29 660.83 188.28 655.31ZM786.98 603.02C789.31 602.02 791.59 600.37 793.98 600.17C811.98 598.69 825.03 587.82 838.83 577.88C849.83 569.96 861.83 563.5 873.08 555.88C877.08 553.12 882.39 549.2 883.08 545.11C885.71 529.99 897.25 523.61 908.13 516.11C924.8 504.69 942.99 495.11 954.72 477.6C949.37 492.46 938.33 502.49 926.08 511.3C918.38 516.85 910.08 521.52 902.16 526.83C894.57 531.95 888.99 538.29 888.63 548.32C888.53 551.09 886.11 554.66 883.7 556.32C864.34 569.52 844.7 582.26 825.2 595.32C813.76 603.02 801.21 605.96 786.98 603.02ZM566.86 303.97C566.37 308.25 565.05 312.62 565.52 316.79C567.24 332.11 568.47 347.28 561.03 361.6C553.19 376.67 540.52 385.48 523.84 386.4C507.62 387.29 498.61 376.13 490.4 363.58C478.78 345.82 476.57 327.46 482.11 307.25C490.7 275.85 532.92 267.61 551.16 286.6C556.7 292.36 563.5 296.92 569.72 302.03L566.86 303.97ZM559.91 321.77C555.97 312.77 552.84 303.21 547.85 294.77C543.69 287.77 536.29 285.88 528.15 288.72C519.79 291.64 514.45 297.82 515.44 306.2C516.529 315.817 519.195 325.189 523.33 333.94C527.44 342.39 535.11 348.86 545.71 345.34C556.31 341.82 557.19 332.25 559.91 321.77ZM391.7 294.46C388.79 304.66 387.19 315.22 382.83 324.46C373.94 343.28 354.31 347.05 337.83 334.25C319.02 319.63 312.41 289.46 319.53 266.85C323.68 253.67 329.08 245.23 342.44 241.12C362.8 234.87 374.1 238.77 382.16 258.67C386.67 269.81 388.49 282.03 391.7 294.46ZM385.08 284.71C381.57 275.58 379.5 268.06 375.81 261.45C374 258.23 368.76 254.45 365.81 254.95C363.448 255.504 361.221 256.523 359.258 257.948C357.296 259.373 355.637 261.176 354.38 263.25C349.06 273.19 351.38 283.58 358.58 291.49C361.96 295.22 369.43 298.18 373.97 297.07C378.32 296.01 381.29 289.25 385.08 284.71ZM467.74 390.04C461.31 402.81 456.18 415.34 449.07 426.62C439.43 441.91 421.87 444.89 409.19 431.99C399.51 422.15 392.57 409.25 386.11 396.75C381.66 388.18 380.11 378.08 377.32 368.66C375.41 362.29 377.75 360.35 383.95 362.2C389.15 363.76 394.48 364.89 399.61 366.63C421.4 374.02 443.12 381.57 467.74 390.04ZM440.99 422.38C426.71 416.64 414.23 411.02 413.04 393.76C412.88 391.3 402.86 389.52 397.4 387.42C397.23 391.82 395.71 396.75 397.2 400.48C399.831 407.086 403.505 413.227 408.08 418.67C416.68 428.79 430.37 430.5 440.99 422.38Z" fill="black"/>
</g>
<defs>
<clipPath id="clip0_42_32">
<rect width="1094.59" height="705.38" fill="white"/>
</clipPath>
</defs>
</svg>
